<svg xmlns="http://www.w3.org/2000/svg" width="88.303" height="88.303" viewBox="0 0 88.303 88.303"><g transform="translate(0)"><g transform="translate(0)" fill="none" stroke="#fff" stroke-miterlimit="10" stroke-width="4"><ellipse cx="44.152" cy="44.152" rx="44.152" ry="44.152" stroke="none"/><ellipse cx="44.152" cy="44.152" rx="42.152" ry="42.152" fill="none"/></g><g transform="translate(18.018 24.784)"><g fill="none" stroke="#fff" stroke-linecap="round" stroke-linejoin="round" stroke-width="2.035"><rect width="12.033" height="33.921" stroke="none"/><rect x="1.017" y="1.017" width="9.998" height="31.886" fill="none"/></g><g transform="translate(16.385 0)"><g transform="translate(-541.945 -504.764)" fill="#fff" stroke-linecap="round" stroke-linejoin="round"><path d="M 575.03955078125 531.7294921875 L 544.732421875 531.7294921875 C 543.7564086914062 531.7294921875 542.96240234375 530.9347534179688 542.96240234375 529.9579467773438 L 542.96240234375 507.5514526367188 C 542.96240234375 506.575439453125 543.7564086914062 505.7813720703125 544.732421875 505.7813720703125 L 573.0216064453125 505.7813720703125 C 573.9447021484375 505.7813720703125 574.7030029296875 506.4743041992188 574.7854614257812 507.3931884765625 L 576.8021240234375 529.7985229492188 C 576.84765625 530.3007202148438 576.6856689453125 530.7816162109375 576.3461303710938 531.1533203125 C 576.0067138671875 531.5248413085938 575.542724609375 531.7294921875 575.03955078125 531.7294921875 Z" stroke="none"/><path d="M 575.03955078125 530.712158203125 C 575.328125 530.712158203125 575.5114135742188 530.5586547851562 575.594970703125 530.4671630859375 C 575.6786499023438 530.3756103515625 575.8150634765625 530.178955078125 575.7888793945312 529.8897094726562 L 573.7721557617188 507.4841003417969 C 573.7371215820312 507.0933837890625 573.4144287109375 506.7987365722656 573.0216064453125 506.7987365722656 L 544.732421875 506.7987365722656 C 544.3173828125 506.7987365722656 543.979736328125 507.1364135742188 543.979736328125 507.5514526367188 L 543.979736328125 529.9579467773438 C 543.979736328125 530.3738403320312 544.3173828125 530.712158203125 544.732421875 530.712158203125 L 575.03955078125 530.712158203125 M 575.03955078125 532.746826171875 L 544.732421875 532.746826171875 C 543.1921997070312 532.746826171875 541.945068359375 531.4981689453125 541.945068359375 529.9579467773438 L 541.945068359375 507.5514526367188 C 541.945068359375 506.0126342773438 543.1921997070312 504.7640380859375 544.732421875 504.7640380859375 L 573.0216064453125 504.7640380859375 C 574.4651489257812 504.7640380859375 575.6697387695312 505.8646240234375 575.7987060546875 507.3023071289062 L 577.8153686523438 529.7073364257812 C 577.9633178710938 531.3399658203125 576.6781005859375 532.746826171875 575.03955078125 532.746826171875 Z" stroke="none" fill="#fff"/></g><g transform="translate(-541.945 -496.594)" fill="#fff" stroke-linecap="round" stroke-linejoin="round"><path d="M 553.1119995117188 541.3793334960938 C 552.96044921875 541.3793334960938 552.8395385742188 541.3143310546875 552.7423095703125 541.1805419921875 C 548.7657470703125 535.70263671875 545.6156005859375 529.7039794921875 543.3675537109375 523.3323364257812 L 553.60302734375 523.3323364257812 L 553.60302734375 540.90087890625 C 553.60302734375 541.0455932617188 553.557373046875 541.157958984375 553.46337890625 541.2443237304688 C 553.3714599609375 541.328857421875 553.2401123046875 541.3793334960938 553.1119995117188 541.3793334960938 Z" stroke="none"/><path d="M 544.8212280273438 524.3496704101562 C 546.796630859375 529.5969848632812 549.3995361328125 534.5752563476562 552.585693359375 539.19775390625 L 552.585693359375 524.3496704101562 L 544.8212280273438 524.3496704101562 M 541.945068359375 522.3150024414062 L 554.620361328125 522.3150024414062 L 554.620361328125 540.90087890625 C 554.620361328125 541.8192138671875 553.8743286132812 542.3966674804688 553.1119384765625 542.3966674804688 C 552.673583984375 542.3966674804688 552.229736328125 542.2056884765625 551.9193725585938 541.7786865234375 C 547.6107177734375 535.8433227539062 544.2459106445312 529.2792358398438 541.945068359375 522.3150024414062 Z" stroke="none" fill="#fff"/></g></g></g></g></svg>