<svg xmlns="http://www.w3.org/2000/svg" width="88.303" height="88.303" viewBox="0 0 88.303 88.303"><g transform="translate(0)"><g transform="translate(0)" fill="none" stroke="#fff" stroke-miterlimit="10" stroke-width="4"><ellipse cx="44.152" cy="44.152" rx="44.152" ry="44.152" stroke="none"/><ellipse cx="44.152" cy="44.152" rx="42.152" ry="42.152" fill="none"/></g><g transform="translate(18.72 17.589)"><g transform="translate(0 17.821)" fill="none" stroke="#fff" stroke-linecap="round" stroke-linejoin="round" stroke-width="2.035"><rect width="12.033" height="33.921" stroke="none"/><rect x="1.017" y="1.017" width="9.998" height="31.886" fill="none"/></g><g transform="translate(16.385)"><g transform="translate(-210.016 -494.193)" fill="#fff" stroke-linecap="round" stroke-linejoin="round"><path d="M 241.0925445556641 538.97900390625 L 212.8034515380859 538.97900390625 C 211.8274230957031 538.97900390625 211.0333557128906 538.1849365234375 211.0333557128906 537.2088623046875 L 211.0333557128906 514.8023681640625 C 211.0333557128906 513.8263549804688 211.8274230957031 513.0323486328125 212.8034515380859 513.0323486328125 L 243.1106109619141 513.0323486328125 C 243.6141662597656 513.0323486328125 244.0783843994141 513.2369384765625 244.417724609375 513.6084594726562 C 244.7568206787109 513.9796752929688 244.9185485839844 514.4601440429688 244.8731231689453 514.9612426757812 L 242.8564758300781 537.3668212890625 C 242.7740325927734 538.2860107421875 242.0157165527344 538.97900390625 241.0925445556641 538.97900390625 Z" stroke="none"/><path d="M 212.8034515380859 514.0496826171875 C 212.3883666992188 514.0496826171875 212.0506896972656 514.3873291015625 212.0506896972656 514.8023681640625 L 212.0506896972656 537.2088623046875 C 212.0506896972656 537.6239624023438 212.3883666992188 537.961669921875 212.8034515380859 537.961669921875 L 241.0925445556641 537.961669921875 C 241.4854278564453 537.961669921875 241.8081359863281 537.6669921875 241.8432464599609 537.275634765625 L 243.8599243164062 514.869384765625 C 243.885986328125 514.5819702148438 243.7499694824219 514.3858642578125 243.6665802001953 514.2945556640625 C 243.5830383300781 514.203125 243.3997344970703 514.0496826171875 243.1106109619141 514.0496826171875 L 212.8034515380859 514.0496826171875 M 212.8034515380859 512.0150146484375 L 243.1106109619141 512.0150146484375 C 244.7490692138672 512.0150146484375 246.0343170166016 513.42041015625 245.8863067626953 515.0531005859375 L 243.8697357177734 537.4580078125 C 243.7407684326172 538.895751953125 242.5360870361328 539.996337890625 241.0925445556641 539.996337890625 L 212.8034515380859 539.996337890625 C 211.2631683349609 539.996337890625 210.0160064697266 538.749267578125 210.0160064697266 537.2088623046875 L 210.0160064697266 514.8023681640625 C 210.0160064697266 513.26220703125 211.2631683349609 512.0150146484375 212.8034515380859 512.0150146484375 Z" stroke="none" fill="#fff"/></g><g transform="translate(-210.016 -499.854)" fill="#fff" stroke-linecap="round" stroke-linejoin="round"><path d="M 221.6740264892578 518.918701171875 L 211.4385681152344 518.918701171875 C 213.6873931884766 512.5455932617188 216.8373107910156 506.5475463867188 220.8136901855469 501.0699462890625 C 220.9105682373047 500.9366760253906 221.0314483642578 500.8716430664062 221.1829376220703 500.8716430664062 C 221.3195343017578 500.8716430664062 221.6740264892578 500.9576110839844 221.6740264892578 501.3501586914062 L 221.6740264892578 518.918701171875 Z" stroke="none"/><path d="M 220.6566772460938 517.9013671875 L 220.6566772460938 503.0533142089844 C 217.470947265625 507.6754455566406 214.8681030273438 512.6536865234375 212.892333984375 517.9013671875 L 220.6566772460938 517.9013671875 M 222.6913604736328 519.93603515625 L 210.0160064697266 519.93603515625 C 212.3168792724609 512.9732666015625 215.6817474365234 506.4076538085938 219.9904022216797 500.4722900390625 C 220.3007507324219 500.0452880859375 220.7445373535156 499.8543090820312 221.1829376220703 499.8543090820312 C 221.9452819824219 499.8543090820312 222.6913604736328 500.4318237304688 222.6913604736328 501.3501586914062 L 222.6913604736328 519.93603515625 Z" stroke="none" fill="#fff"/></g></g></g></g></svg>