<svg xmlns="http://www.w3.org/2000/svg" width="361.277" height="213.554" viewBox="0 0 361.277 213.554"><g transform="translate(3176.252 4627.729)"><path d="M-3161.209-4558.055c.5-.771.992-1.552,1.512-2.312a15.715,15.715,0,0,1,11.794-6.952,23,23,0,0,1,8.988.514c4.033,1.161,7.161,3.335,8.589,7.482.082.236.332.415.488.6.23-.078.509-.091.553-.2,1.854-4.542,5.536-6.764,10.049-7.889a23.678,23.678,0,0,1,11.762.012c5.184,1.326,10.184,5.517,10.627,12.47.15,2.354.382,4.707.4,7.061.053,7.181.015,14.364.021,21.545,0,3.9.182,4.06,4.205,4.13a31.109,31.109,0,0,1,3.1.194,1.705,1.705,0,0,1,1.711,1.874,1.913,1.913,0,0,1-1.829,1.835,8.111,8.111,0,0,1-1.414.077c-5.575,0-11.15.017-16.725,0-2.172-.008-3.264-.63-3.384-1.811-.129-1.27,1.057-2.038,3.374-2.154.943-.049,1.895.006,2.833-.078,2.1-.184,2.552-.684,2.695-2.843.032-.472.014-.945.014-1.417,0-7.277.033-14.554-.022-21.829a32.994,32.994,0,0,0-.5-5.341c-1.354-7.808-7.328-11.787-15.1-10.127-7.213,1.542-11.486,6.687-11.679,14.63s-.072,15.876-.033,23.813c.012,2.589.528,3.017,3.241,3.159,1.226.063,2.454.085,3.675.188a1.9,1.9,0,0,1,1.941,1.712,1.916,1.916,0,0,1-1.947,2.02q-9.494.108-18.99.006a1.792,1.792,0,0,1-1.943-1.972,1.7,1.7,0,0,1,1.806-1.771c1.316-.1,2.641-.106,3.958-.2,2.19-.147,2.614-.547,2.93-2.656a3.859,3.859,0,0,0,.06-.562q-.045-11.9-.1-23.807c-.005-1.132-.113-2.262-.153-3.394-.244-6.929-4.84-11.4-11.8-11.484a15.084,15.084,0,0,0-15.074,13.406c-.231,2.155-.324,4.333-.341,6.5-.047,5.67-.018,11.339-.014,17.01a23.079,23.079,0,0,0,.069,2.548c.2,1.821.628,2.23,2.513,2.409.938.088,1.889.021,2.832.07a15.874,15.874,0,0,1,2.248.244,1.491,1.491,0,0,1,1.271,1.882,2.926,2.926,0,0,1-1.245,1.659,4.134,4.134,0,0,1-1.943.187q-8.363.015-16.726,0a9.742,9.742,0,0,1-1.415-.047c-1.322-.2-1.976-.886-1.926-2a1.729,1.729,0,0,1,1.812-1.78c1.128-.083,2.26-.13,3.392-.161,3.345-.1,3.88-.535,3.89-3.753q.05-16.583,0-33.168c-.01-3.015-.634-3.54-3.744-3.641-1.133-.037-2.275.019-3.4-.115-1.4-.164-2.017-.844-1.957-1.946a1.773,1.773,0,0,1,1.793-1.838c3.588-.073,7.18-.082,10.768,0,1.3.027,1.677,1.1,1.7,2.221.045,1.868.013,3.737.013,5.605Z" transform="translate(0 23.282)" fill="#232323"/><path d="M-3119.962-4464.6c0,1.864.018,3.728,0,5.591-.038,3.212-.588,3.761-3.818,3.793-2.266.023-4.533.007-6.8,0a10.923,10.923,0,0,1-1.415-.042c-1.737-.224-2.516-.922-2.461-2.158.056-1.206.86-1.87,2.631-2,1.222-.087,2.455.005,3.682-.042,2.1-.083,2.607-.6,2.757-2.732.045-.658.017-1.322.017-1.983q0-26.068,0-52.137c0-4.694-.225-4.907-4.966-4.972a20.871,20.871,0,0,1-2.539-.151,1.667,1.667,0,0,1-1.591-1.682,1.78,1.78,0,0,1,1.6-1.992,9.3,9.3,0,0,1,1.972-.111q3.542-.018,7.084,0c3.435.014,3.834.411,3.85,3.972.02,4.818,0,9.635.006,14.452v12.561c.758-1,1.148-1.428,1.439-1.914,4.552-7.585,11.573-9.8,19.884-9.058a26.009,26.009,0,0,1,5.806,1.182,18.852,18.852,0,0,1,12.361,12.349,35.328,35.328,0,0,1-.338,24.937c-3.14,8.007-9.348,12.108-17.824,12.674a34.748,34.748,0,0,1-8.154-.433,16.23,16.23,0,0,1-11.7-8.561c-.309-.549-.628-1.091-.944-1.637Zm35.965-15.454c-.158-1.374-.261-3.359-.635-5.292a20.284,20.284,0,0,0-6.234-11.765c-7.926-7.086-24.7-5.675-28.457,9.352a34.616,34.616,0,0,0-.173,15.415c1.7,8.368,6.6,13.2,14.99,14.223,6.98.854,12.823-1.553,16.815-7.585C-3084.943-4469.853-3084.2-4474.583-3084-4480.052Z" transform="translate(16.16 39.655)" fill="#232323"/><path d="M-2947.985-4495.708c.067-.818.175-1.547.177-2.276q.02-9.773.007-19.546c0-.471-.013-.945-.032-1.416a2.063,2.063,0,0,0-2.109-2.191c-1.223-.087-2.452-.077-3.675-.152a6.085,6.085,0,0,1-2.212-.322,2.1,2.1,0,0,1-1.016-1.47,2.927,2.927,0,0,1,.753-1.662,1.415,1.415,0,0,1,1.016-.41c3.587-.035,7.174-.07,10.761-.011a1.9,1.9,0,0,1,1.892,2.064c.043.849.035,1.7.035,2.549q0,27.9,0,55.8c0,.662-.008,1.322,0,1.983.054,2.906.406,3.256,3.257,3.319a32.83,32.83,0,0,1,3.951.167,1.854,1.854,0,0,1,1.832,1.817c.048,1.329-.806,1.846-1.874,2.1a8.777,8.777,0,0,1-1.969.137c-2.266.016-4.532.021-6.8,0-3.349-.027-3.789-.463-3.811-3.729-.011-1.751,0-3.5,0-5.256l-.552-.1c-.286.455-.591.9-.852,1.368-2.892,5.181-7.485,7.932-13.181,8.751a26.857,26.857,0,0,1-11.515-.613c-8.012-2.369-12.7-7.934-14.552-15.856a36.451,36.451,0,0,1,.335-18.479c3.369-11.859,13.849-17.53,25.264-15.949a19.46,19.46,0,0,1,10.311,4.261A49.412,49.412,0,0,1-2947.985-4495.708Zm.46,16.2c-.314-3.094-.373-5.467-.822-7.764-1.5-7.664-7.352-13.158-14.5-13.814-8.958-.822-16.129,3.194-19.112,10.945a28.75,28.75,0,0,0,.043,21.293c2.99,7.681,9.18,11.185,17.159,10.884,8.4-.316,13.651-4.5,15.792-12.505A79.205,79.205,0,0,0-2947.525-4479.509Z" transform="translate(72.252 39.663)" fill="#232323"/><path d="M-3032.589-4470.414c-.774,1.151-1.25,1.793-1.657,2.478a16.238,16.238,0,0,1-14.486,8.38,41.742,41.742,0,0,1-9.264-.67c-6.681-1.425-10.569-6.027-10.924-13.016-.3-5.939,2.119-11.308,8.485-14.043a21.1,21.1,0,0,1,6.228-1.724c4.586-.43,9.206-.54,13.814-.7,1.693-.059,3.394.187,5.09.172,2.128-.02,3.016-.789,2.951-2.9a31.788,31.788,0,0,0-.795-6.712c-.85-3.4-3.4-5.427-6.574-6.485a21.117,21.117,0,0,0-14.953.408,10.009,10.009,0,0,0-6.217,7.224,16.807,16.807,0,0,1-.577,2.187,2.676,2.676,0,0,1-2.985,1.626,2.415,2.415,0,0,1-2.249-2.187,7.731,7.731,0,0,1,.3-3.055,14.851,14.851,0,0,1,10.5-10.214,32.992,32.992,0,0,1,17.893-.156c6.6,1.791,10.49,6.406,10.7,13.264.257,8.49.163,16.99.222,25.486.008,1.134-.029,2.271.065,3.4.186,2.234.585,2.6,2.763,2.685.943.037,1.893-.038,2.831.039,1.785.144,2.569.786,2.6,2.007.033,1.244-.763,2.078-2.459,2.141-2.829.1-5.667.113-8.494.01-1.964-.072-2.427-.65-2.5-2.645-.054-1.509,0-3.022-.029-4.532C-3032.321-4468.561-3032.443-4469.174-3032.589-4470.414Zm-30.5-3.833a9.728,9.728,0,0,0,7.454,10.023,19.88,19.88,0,0,0,13.817-1.017,12.688,12.688,0,0,0,6.051-5.385,25.4,25.4,0,0,0,3.009-12.81c-.014-1.61-.415-2.021-1.971-2.2a54.165,54.165,0,0,0-16.918.39,24.867,24.867,0,0,0-5.894,1.894A9.069,9.069,0,0,0-3063.094-4474.247Z" transform="translate(41.511 45.172)" fill="#232323"/><path d="M-3016.218-4500.861c.5-.815.753-1.185.958-1.58a14.835,14.835,0,0,1,9.744-7.6,24.261,24.261,0,0,1,12.865-.026c6.8,1.8,10.673,6.771,10.73,13.827.072,8.877.018,17.754.023,26.633a24.3,24.3,0,0,0,.064,2.546,2.063,2.063,0,0,0,2.223,2.077c1.227.009,2.458-.042,3.682.039a5.647,5.647,0,0,1,2.166.5,1.759,1.759,0,0,1,.014,3.174,5.675,5.675,0,0,1-2.444.511q-8.355.064-16.715.006a4.5,4.5,0,0,1-2.182-.41,2.438,2.438,0,0,1-1.167-1.673,2.15,2.15,0,0,1,1.132-1.678,12.658,12.658,0,0,1,3.6-.435c4.206-.057,4.21-.029,4.211-4.308q0-12.042-.009-24.083a19.2,19.2,0,0,0-.247-3.662c-1.061-5.331-4.409-8.5-9.685-9.358a21.8,21.8,0,0,0-7.3.056c-7.176,1.321-11.484,6.889-11.845,14.593-.375,8.012-.14,16.051-.108,24.078.009,2.132.564,2.58,2.75,2.658,1.321.049,2.651-.049,3.963.074,1.521.145,2.3.9,2.329,2,.028,1.117-.742,1.863-2.23,2.1a9.215,9.215,0,0,1-1.415.058c-5.382,0-10.766.011-16.148-.01a8.487,8.487,0,0,1-2.23-.258,1.807,1.807,0,0,1-1.5-1.812,1.727,1.727,0,0,1,1.438-1.845,17.3,17.3,0,0,1,3.359-.291c4.209-.045,4.241-.053,4.242-4.33q.007-15.866,0-31.732c0-.565.024-1.136-.015-1.7-.133-1.9-.688-2.514-2.588-2.649-1.411-.1-2.836.007-4.245-.1-1.6-.124-2.258-.8-2.182-2.011.083-1.329.992-1.771,2.125-1.784,3.4-.041,6.8-.08,10.2,0,1.507.036,1.984.588,2.087,2.119.095,1.41.011,2.832.047,4.248A20.2,20.2,0,0,0-3016.218-4500.861Z" transform="translate(56.194 45.185)" fill="#232323"/><path d="M-2942.552-4558.261c.245-.38.509-.752.736-1.144,2.882-4.98,7.306-7.45,12.938-7.958a27.037,27.037,0,0,1,10.38.754,13.259,13.259,0,0,1,9.8,12.182c.118,1.409.183,2.827.186,4.24.018,7.839.005,15.677.012,23.516,0,.942.026,1.888.086,2.829a2.068,2.068,0,0,0,2.154,2.152c1.507.079,3.023.049,4.524.19,1.667.155,2.262.753,2.229,1.972s-.7,1.872-2.317,1.885c-6.233.047-12.466.021-18.7.008a2.948,2.948,0,0,1-1.1-.184,1.617,1.617,0,0,1-1.132-2.015,2.6,2.6,0,0,1,1.379-1.494,9.171,9.171,0,0,1,2.8-.267c4.728-.088,4.867-.218,4.871-5.057.005-7.177.028-14.354-.018-21.532a34.836,34.836,0,0,0-.428-5.064c-.831-5.372-3.957-8.587-9.213-9.8a17.624,17.624,0,0,0-8.684.125c-6.012,1.622-9.332,5.8-10.611,11.7a29.332,29.332,0,0,0-.552,5.9c-.065,6.326-.023,12.654-.023,18.981,0,.284,0,.566,0,.85.041,3.445.414,3.81,3.969,3.894.943.021,1.893-.013,2.829.087,1.716.183,2.247.69,2.227,1.958s-.618,1.9-2.26,1.914c-6.231.053-12.465.027-18.7.015a2.174,2.174,0,0,1-1.35-.276c-.5-.479-1.142-1.18-1.112-1.756a2.146,2.146,0,0,1,1.284-1.579,22.76,22.76,0,0,1,4.211-.355c3.116-.12,3.635-.494,3.651-3.677q.089-16.572,0-33.146c-.017-3.219-.611-3.67-3.906-3.749-1.132-.027-2.265-.04-3.393-.128a1.9,1.9,0,0,1-1.942-1.711c-.126-.946.681-1.825,1.935-2.056a11.182,11.182,0,0,1,1.976-.094c2.266-.01,4.533-.017,6.8,0,3.563.023,3.738.2,3.771,3.651.013,1.4,0,2.792,0,4.188Z" transform="translate(84.53 23.285)" fill="#232323"/><path d="M-2942.481-4466.961c0,1.215.049,2.432-.012,3.645-.079,1.569-.945,2.531-2.119,2.481a2.247,2.247,0,0,1-2.075-2.307q-.129-6.088-.008-12.18a2.038,2.038,0,0,1,2.074-2.227,2.04,2.04,0,0,1,2.364,1.9c.072.369.21.725.288,1.093a12.954,12.954,0,0,0,7.776,9.479,18.6,18.6,0,0,0,16.405-.454,10.749,10.749,0,0,0,2.543-1.768c4.7-4.376,3.429-11.534-2.577-13.795a44.653,44.653,0,0,0-7.7-1.711c-3.611-.662-7.286-1.029-10.856-1.862-3.478-.813-6.476-2.541-8.244-5.917a12.965,12.965,0,0,1,4.025-16.623,20.849,20.849,0,0,1,11.719-3.645,32.517,32.517,0,0,1,7.3.662,12.626,12.626,0,0,1,6.994,4.047c.623.685,1.241,1.376,2.118,2.348.136-.933.214-1.526.31-2.116a14.377,14.377,0,0,1,.4-2.19,1.768,1.768,0,0,1,2.031-1.172,1.77,1.77,0,0,1,1.764,1.539,11.3,11.3,0,0,1,.15,1.972q.023,4.818,0,9.633a4.194,4.194,0,0,1-.18,1.947c-.38.654-1.09,1.467-1.724,1.528a2.663,2.663,0,0,1-1.99-1.157,5.584,5.584,0,0,1-.508-2.444,9.4,9.4,0,0,0-4.528-7.477,18.851,18.851,0,0,0-18.9-.9,8.336,8.336,0,0,0-4.3,4.7c-1.544,4.1.1,8.184,4.277,9.724a52.608,52.608,0,0,0,8.232,1.914c3.327.646,6.682,1.15,10.02,1.744a13.112,13.112,0,0,1,1.9.548c4.794,1.635,7.875,4.866,8.567,9.931.682,5.01-.815,9.4-4.915,12.544a18.887,18.887,0,0,1-5.2,2.778,28.585,28.585,0,0,1-14.8.725,13.543,13.543,0,0,1-8.807-5.687c-.367-.511-.8-.975-1.2-1.462Z" transform="translate(88.779 45.204)" fill="#232323"/><path d="M-3067.04-4524.306c-.078,1.306-.132,2.135-.173,2.964a12.607,12.607,0,0,1-.072,1.7,2.124,2.124,0,0,1-2.312,2,1.953,1.953,0,0,1-1.855-2.118q-.054-6.237,0-12.473a1.943,1.943,0,0,1,1.862-2.11,2.062,2.062,0,0,1,2.365,1.568c.118.356.179.733.262,1.1,1.623,7.2,7.109,10.712,13.494,11.386a19.107,19.107,0,0,0,10.49-1.753c2.641-1.28,4.728-3.19,5.447-6.166a7.966,7.966,0,0,0-5.341-9.694,58.742,58.742,0,0,0-8.285-1.755c-2.69-.476-5.413-.769-8.109-1.221a23.292,23.292,0,0,1-3.269-.889c-4.529-1.464-7.453-4.512-8.222-9.208a12.652,12.652,0,0,1,4.379-12.227,17.254,17.254,0,0,1,8.125-3.793,29.83,29.83,0,0,1,11.27-.069,13.123,13.123,0,0,1,8.089,4.843c.405.509.792,1.032,1.384,1.8.821-1.314.512-2.349.62-3.3.172-1.5.81-2.288,1.939-2.374a2.115,2.115,0,0,1,2.3,2.31q.135,6.091,0,12.187a1.972,1.972,0,0,1-2.066,2.208c-1.249.011-1.885-.606-2.167-2.111a5.122,5.122,0,0,1-.054-.563c-.413-5.671-3.78-8.8-8.928-10.424a19.525,19.525,0,0,0-12.787.262c-3.048,1.1-5.453,2.987-6.354,6.333-1,3.7.2,6.981,3.694,8.515a38.99,38.99,0,0,0,7.855,2.173c3.415.7,6.879,1.154,10.32,1.729a15.79,15.79,0,0,1,1.643.419c5.012,1.415,8.678,4.238,9.507,9.676.923,6.058-.9,11.007-6.344,14.3a16.974,16.974,0,0,1-7.717,2.581,63.857,63.857,0,0,1-9.046.007,13.446,13.446,0,0,1-10.282-5.762C-3065.8-4522.843-3066.287-4523.38-3067.04-4524.306Z" transform="translate(40.53 23.272)" fill="#232323"/><path d="M-3072.46-4525.509a6.538,6.538,0,0,0-.8,1.036c-2.048,4.138-5.551,6.331-9.9,7.275a29.066,29.066,0,0,1-11.82.131c-6.92-1.363-11.4-6.839-11.534-14.138-.159-8.591-.1-17.186-.125-25.778-.014-5.468,0-5.463-5.424-5.586a5.593,5.593,0,0,1-2.222-.254,2.811,2.811,0,0,1-1.317-1.561c-.278-.922.308-1.617,1.2-1.963a2.375,2.375,0,0,1,.831-.155c3.4-.012,6.8-.024,10.2,0a1.728,1.728,0,0,1,1.85,1.746c.075.844.088,1.7.088,2.545.007,8.027-.057,16.054.037,24.08a42.072,42.072,0,0,0,.761,8.142c1.182,5.6,4.4,8.452,10.04,9.229a18.222,18.222,0,0,0,9.19-1.035,12.639,12.639,0,0,0,6.646-5.874,22.242,22.242,0,0,0,2.66-10.323c.176-7.079.132-14.164.111-21.245-.009-2.612-.587-3.144-3.161-3.295-1.317-.078-2.65.012-3.959-.126-1.433-.152-2-.792-1.957-1.937a1.832,1.832,0,0,1,2.029-1.895c3.4-.054,6.8-.036,10.2-.022a2.148,2.148,0,0,1,2.205,2.143,17.859,17.859,0,0,1,.076,2.543q.007,17.283,0,34.563c0,.662-.008,1.321,0,1.982.049,2.824.408,3.176,3.322,3.28,1.226.044,2.453.054,3.675.15,1.154.088,2.066.618,2,1.908a1.918,1.918,0,0,1-2.086,1.886q-5.24.069-10.48,0c-1.262-.015-1.832-.82-1.833-2.046q0-2.647,0-5.292Z" transform="translate(23.433 23.676)" fill="#232323"/><path d="M-2962.327-4627.729c29.343,1.337,51.071,14.584,64.186,41.272a22.744,22.744,0,0,1,1.312,3.131,3.117,3.117,0,0,1-1.67,3.771,3.187,3.187,0,0,1-3.957-1.257,15.85,15.85,0,0,1-.817-1.8c-9.074-19.88-24.279-32.406-45.515-37.354a61.591,61.591,0,0,0-35.383,2.342,16.019,16.019,0,0,1-2.966.893,2.738,2.738,0,0,1-3.337-1.916,2.942,2.942,0,0,1,1.591-3.8,84.139,84.139,0,0,1,9.1-3.066A69.98,69.98,0,0,1-2962.327-4627.729Z" transform="translate(71.803)" fill="#232323"/><path d="M-2984.572-4559.347c0-1.006-.022-2.012.007-3.016a14.153,14.153,0,0,1,.18-2.249,1.712,1.712,0,0,1,1.807-1.475,1.844,1.844,0,0,1,1.979,1.638,5.886,5.886,0,0,1,.087,1.128q.01,6.23,0,12.462c0,1.053-.061,2.126-1.289,2.571a2.232,2.232,0,0,1-3.061-1.613c-.165-.537-.23-1.107-.36-1.658a15.232,15.232,0,0,0-17.919-11.759c-8.435,1.5-12.814,7.012-14.658,14.93a28.516,28.516,0,0,0,.936,16.166,17.337,17.337,0,0,0,22.837,10.869,12.836,12.836,0,0,0,8.669-9.32c.183-.731.335-1.476.583-2.186a2.093,2.093,0,0,1,2.577-1.634,2.44,2.44,0,0,1,2.069,2.336,3.681,3.681,0,0,1-.16,1.111c-2.3,8.633-7.284,13.133-15.167,14.477a28.122,28.122,0,0,1-10.984-.184c-8.637-1.968-13.983-7.485-16.4-15.863a33.559,33.559,0,0,1-.095-18.168c2.949-11.08,11.654-17.337,23.106-16.724,6.251.335,11.288,2.747,14.519,8.4Z" transform="translate(58.845 23.279)" fill="#232323"/><path d="M-3078.818-4501.252a17.158,17.158,0,0,0,.961-1.6c2.8-5.966,10.12-8.232,14.886-8.021a6.5,6.5,0,0,1,2.422.7,2.021,2.021,0,0,1,.973,2.426c-.2,1.147-1.073,1.117-1.943,1.167a42,42,0,0,0-5.6.418c-7.79,1.518-10.664,6.5-11.774,12.75a36,36,0,0,0-.48,5.909c-.06,5.951-.022,11.9-.02,17.853,0,.756-.038,1.517.036,2.266.173,1.774.7,2.3,2.5,2.372,1.7.067,3.4-.016,5.1.037,2.14.066,3.092.762,3.069,2.128s-.961,2.056-3.127,2.069c-6.235.039-12.469.017-18.7.007a5.248,5.248,0,0,1-1.4-.155c-1.039-.295-2.06-.75-1.957-2.05a2.127,2.127,0,0,1,2.144-1.911c1.5-.148,3.019-.045,4.526-.122,1.745-.091,2.124-.418,2.391-2.147a20.521,20.521,0,0,0,.2-3.1q.021-15.02,0-30.041c-.008-4.851-.269-5.08-5.117-5.131a6.841,6.841,0,0,1-2.518-.187,2.925,2.925,0,0,1-1.579-1.7c-.228-1.039.588-1.706,1.633-1.917a5.774,5.774,0,0,1,1.127-.1c3.022-.01,6.047-.055,9.067.01,2.1.045,2.469.439,2.571,2.5.091,1.826.087,3.656.125,5.483Z" transform="translate(31.863 45.201)" fill="#232323"/><path d="M-2964.915-4608.475c18.133.777,31.5,9.038,39.679,25.417a9.778,9.778,0,0,1,.969,2.925,2.9,2.9,0,0,1-2.077,3.287,2.983,2.983,0,0,1-3.444-1.3,12.334,12.334,0,0,1-.891-1.76c-6-12.674-16.028-20.027-29.816-22.067a34.419,34.419,0,0,0-16.741,1.732c-.711.254-1.4.58-2.129.768a3.106,3.106,0,0,1-3.927-1.882c-.628-1.566.011-3.037,1.761-3.949a13.817,13.817,0,0,1,1.581-.614A42.456,42.456,0,0,1-2964.915-4608.475Z" transform="translate(74.554 7.448)" fill="#232323"/><path d="M-3026.315-4544.282v16.42c0,.567,0,1.133,0,1.7.026,3.763.32,4.069,3.969,4.181a20.318,20.318,0,0,1,2.538.151c1.465.231,2.05.845,1.94,1.937a2,2,0,0,1-2.109,1.867c-.562.047-1.13.035-1.7.035q-7.643,0-15.287,0a12.448,12.448,0,0,1-1.976-.085,1.871,1.871,0,0,1-1.807-1.843,1.741,1.741,0,0,1,1.731-1.865c.933-.112,1.878-.143,2.818-.193.847-.045,1.7-.019,2.543-.111a1.91,1.91,0,0,0,1.9-2.043c.012-.66.022-1.322.022-1.982q0-16.137,0-32.273c0-.473.017-.946-.008-1.416-.11-2.073-.433-2.467-2.493-2.659-1.406-.132-2.833-.034-4.239-.164-1.571-.146-2.344-.883-2.294-1.971.05-1.055.9-1.847,2.412-1.889,3.112-.086,6.229-.087,9.342-.029,2.2.04,2.623.507,2.678,2.7.05,1.98.014,3.963.014,5.945Q-3026.315-4551.075-3026.315-4544.282Z" transform="translate(52.412 23.664)" fill="#232323"/><path d="M-2961.326-4544.081c0,6.238-.014,12.475.008,18.711.01,2.869.412,3.245,3.248,3.377,1.13.053,2.263.093,3.387.221a1.6,1.6,0,0,1,1.486,1.759,1.733,1.733,0,0,1-1.631,1.948,12.593,12.593,0,0,1-1.7.065q-7.939.006-15.875,0a9.047,9.047,0,0,1-1.973-.127,1.717,1.717,0,0,1-1.449-1.827,1.6,1.6,0,0,1,1.46-1.782c1.31-.147,2.631-.2,3.95-.252,3.2-.125,3.658-.519,3.664-3.63q.034-16.585,0-33.17c-.005-3.221-.5-3.655-3.85-3.764-1.226-.039-2.456-.061-3.674-.186a1.591,1.591,0,0,1-1.553-1.692,1.853,1.853,0,0,1,1.369-1.914,2.323,2.323,0,0,1,.83-.157c3.306-.015,6.615-.072,9.92.008,1.55.037,2.159.734,2.344,2.29a16.848,16.848,0,0,1,.033,1.981Q-2961.325-4553.153-2961.326-4544.081Z" transform="translate(77.533 23.671)" fill="#232323"/><path d="M-2960.722-4579.147a6.01,6.01,0,0,1-6.166,6.022,6.127,6.127,0,0,1-6.019-5.951,6.334,6.334,0,0,1,6.087-6.23A6.119,6.119,0,0,1-2960.722-4579.147Z" transform="translate(78.662 16.41)" fill="#232323"/></g></svg>