<?xml version="1.0" encoding="iso-8859-1"?>
<!-- Generator: Adobe Illustrator 18.1.1, SVG Export Plug-In . SVG Version: 6.00 Build 0)  -->
<svg version="1.1" id="Capa_1" fill="#fff" xmlns="http://www.w3.org/2000/svg" xmlns:xlink="http://www.w3.org/1999/xlink" x="0px" y="0px"
	 viewBox="0 0 32 32" style="enable-background:new 0 0 32 32;" xml:space="preserve">
<g id="pause">
	<path d="M11.501,32h-6c-1.654,0-3-1.346-3-3V3.004c0-1.654,1.346-3,3-3h6c1.654,0,3,1.346,3,3V29
		C14.501,30.654,13.156,32,11.501,32z M5.502,2.004c-0.551,0-1,0.448-1,1V29c0,0.552,0.449,1,1,1h6c0.551,0,1-0.448,1-1V3.004
		c0-0.552-0.449-1-1-1H5.502z"/>
	<path d="M26.498,32h-5.997c-1.654,0-3-1.346-3-3V3c0-1.654,1.346-3,3-3h5.997c1.654,0,3,1.346,3,3v26
		C29.498,30.654,28.152,32,26.498,32z M20.501,2c-0.551,0-1,0.448-1,1v26c0,0.552,0.449,1,1,1h5.997c0.551,0,1-0.448,1-1V3
		c0-0.552-0.449-1-1-1H20.501z"/>
</g>
<g>
</g>
<g>
</g>
<g>
</g>
<g>
</g>
<g>
</g>
<g>
</g>
<g>
</g>
<g>
</g>
<g>
</g>
<g>
</g>
<g>
</g>
<g>
</g>
<g>
</g>
<g>
</g>
<g>
</g>
</svg>
