<svg xmlns="http://www.w3.org/2000/svg" width="88.276" height="88.276" viewBox="0 0 88.276 88.276"><g transform="translate(-405.399 356.753)"><g transform="translate(405.399 -356.753)" fill="none" stroke="#3b3b3b" stroke-miterlimit="10" stroke-width="4"><circle cx="44.138" cy="44.138" r="44.138" stroke="none"/><circle cx="44.138" cy="44.138" r="42.138" fill="none"/></g><g transform="translate(422.882 -338.839)"><g transform="translate(-427.601 333.459)" fill="#333" stroke-miterlimit="10"><path d="M 430.5270690917969 -309.1310729980469 L 429.7327575683594 -328.2984924316406 L 445.3543090820312 -321.3037719726562 L 430.5270690917969 -309.1310729980469 Z" stroke="none"/><path d="M 431.8648681640625 -325.1524963378906 L 432.3592224121094 -313.2228698730469 L 441.5875549316406 -320.7990417480469 L 431.8648681640625 -325.1524963378906 M 427.6006774902344 -331.4444885253906 L 449.1210632324219 -321.8085021972656 L 428.6949157714844 -305.0392761230469 L 427.6006774902344 -331.4444885253906 Z" stroke="none" fill="#3b3b3b"/></g><path d="M439.122-326.361a26.173,26.173,0,0,1,37.015.047,26.173,26.173,0,0,1-.047,37.014,26.173,26.173,0,0,1-37.014-.047" transform="translate(-430.039 334.003)" fill="none" stroke="#3b3b3b" stroke-miterlimit="10" stroke-width="4"/></g><path d="M461.428-311.428v8.629l5.274,3.625" transform="translate(-11.909 -9.634)" fill="none" stroke="#3b3b3b" stroke-miterlimit="10" stroke-width="4"/></g></svg>