<?xml version="1.0" encoding="UTF-8"?>
<svg width="18px" height="18px" viewBox="0 0 18 18" version="1.1" xmlns="http://www.w3.org/2000/svg" xmlns:xlink="http://www.w3.org/1999/xlink">
    <!-- Generator: Sketch 3.8.3 (29802) - http://www.bohemiancoding.com/sketch -->
    <title>Facebook-black</title>
    <desc>Created with Sketch.</desc>
    <defs></defs>
    <g id="Page-1" stroke="none" stroke-width="1" fill="none" fill-rule="evenodd">
        <g id="Confirmation-Email+FC" transform="translate(-637.000000, -2743.000000)" fill="#6B7471">
            <g id="Group-21" transform="translate(637.000000, 2743.000000)">
                <path d="M9.17916423,17.2015789 L0.948490298,17.2015789 C0.424500087,17.2015789 0,16.7850871 0,16.2715011 L0,1.28106511 C0,0.767348291 0.424566769,0.351052632 0.948490298,0.351052632 L16.2367616,0.351052632 C16.7605517,0.351052632 17.1851852,0.767348291 17.1851852,1.28106511 L17.1851852,16.2715011 C17.1851852,16.7851525 16.7604851,17.2015789 16.2367616,17.2015789 L11.8575291,17.2015789 L11.8575291,10.6761265 L14.0913224,10.6761265 L14.4258013,8.1330419 L11.8575291,8.1330419 L11.8575291,6.50944306 C11.8575291,5.77316139 12.0660449,5.27140972 13.1428321,5.27140972 L14.5162226,5.27082127 L14.5162226,2.996266 C14.2786999,2.9652743 13.463441,2.89603335 12.5149507,2.89603335 C10.5348172,2.89603335 9.17916423,4.08117158 9.17916423,6.25758648 L9.17916423,8.1330419 L6.9396362,8.1330419 L6.9396362,10.6761265 L9.17916423,10.6761265 L9.17916423,17.2015789 L9.17916423,17.2015789 Z" id="Facebook"></path>
            </g>
        </g>
    </g>
</svg>