<?xml version="1.0" encoding="UTF-8"?>
<svg width="18px" height="15px" viewBox="0 0 18 15" version="1.1" xmlns="http://www.w3.org/2000/svg" xmlns:xlink="http://www.w3.org/1999/xlink">
    <!-- Generator: Sketch 3.8.3 (29802) - http://www.bohemiancoding.com/sketch -->
    <title>Twitter-black</title>
    <desc>Created with Sketch.</desc>
    <defs></defs>
    <g id="Page-1" stroke="none" stroke-width="1" fill="none" fill-rule="evenodd">
        <g id="Confirmation-Email+FC" transform="translate(-674.000000, -2744.000000)" fill="#6B7471">
            <g id="Group-21" transform="translate(637.000000, 2743.000000)">
                <path d="M54.9876543,3.41759689 C54.3562095,3.69955466 53.6763471,3.89023113 52.9631977,3.975427 C53.6914776,3.53727681 54.2502962,2.84252476 54.5135663,2.01490772 C53.8316866,2.42060235 53.0781893,2.71574519 52.2732484,2.87396609 C51.6317166,2.18529946 50.7148102,1.75526316 49.7000602,1.75526316 C47.7542821,1.75526316 46.1756699,3.34254338 46.1756699,5.30001996 C46.1756699,5.57792078 46.2059309,5.8477077 46.2664528,6.10735226 C43.3361855,5.95927373 40.7387886,4.5494849 38.9987848,2.40234609 C38.6951667,2.92772063 38.5216707,3.53727681 38.5216707,4.18638821 C38.5216707,5.41564293 39.1440373,6.50087605 40.0901958,7.13680238 C39.5132207,7.11956036 38.9685238,6.95829674 38.4924185,6.69459524 L38.4924185,6.73820741 C38.4924185,8.45632415 39.7078994,9.88944042 41.3218159,10.2139961 C41.0262674,10.2971635 40.7145798,10.3387472 40.3928052,10.3387472 C40.1658482,10.3387472 39.9439347,10.3174483 39.729082,10.2758646 C40.1779526,11.6836249 41.4791728,12.7090181 43.0224805,12.7364025 C41.8160779,13.6877564 40.2949615,14.2547146 38.6437231,14.2547146 C38.3592703,14.2547146 38.0778436,14.2384868 37.8024691,14.2060312 C39.3629247,15.2101254 41.2169113,15.7973684 43.2070722,15.7973684 C49.6929993,15.7973684 53.2385723,10.3965587 53.2385723,5.7118 C53.2385723,5.55763605 53.2355462,5.40347209 53.229494,5.25235084 C53.9184346,4.75233221 54.5165924,4.12857672 54.9876543,3.41759689" id="Twitter"></path>
            </g>
        </g>
    </g>
</svg>