<?xml version="1.0" encoding="UTF-8"?>
<svg width="18px" height="18px" viewBox="0 0 18 18" version="1.1" xmlns="http://www.w3.org/2000/svg" xmlns:xlink="http://www.w3.org/1999/xlink">
    <!-- Generator: Sketch 3.8.3 (29802) - http://www.bohemiancoding.com/sketch -->
    <title>Instagram-black</title>
    <desc>Created with Sketch.</desc>
    <defs></defs>
    <g id="Page-1" stroke="none" stroke-width="1" fill="none" fill-rule="evenodd">
        <g id="Confirmation-Email+FC" transform="translate(-712.000000, -2743.000000)" fill="#6B7471">
            <g id="Group-21" transform="translate(637.000000, 2743.000000)">
                <path d="M84.0000171,0.351052632 C81.666392,0.351052632 81.3737764,0.360751431 80.4572851,0.40175394 C79.5427038,0.442656117 78.9180776,0.585094687 78.3715253,0.793384758 C77.8064864,1.00866465 77.3272982,1.29675243 76.8495767,1.76513754 C76.3718892,2.23355609 76.0780799,2.70341274 75.8585244,3.25744828 C75.6460976,3.79335709 75.5008302,4.40581953 75.4591157,5.30259056 C75.4172988,6.20123447 75.4074074,6.4881517 75.4074074,8.77633251 C75.4074074,11.0644799 75.4172988,11.3513971 75.4591157,12.250041 C75.5008302,13.146812 75.6460976,13.7592745 75.8585244,14.2951833 C76.0780799,14.8492188 76.3718892,15.3190755 76.8495767,15.787494 C77.3272982,16.2558791 77.8064864,16.5439669 78.3715253,16.7592803 C78.9180776,16.9675369 79.5427038,17.1099755 80.4572851,17.1508776 C81.3737764,17.1918801 81.666392,17.2015789 84.0000171,17.2015789 C86.333608,17.2015789 86.6262236,17.1918801 87.5427149,17.1508776 C88.4572962,17.1099755 89.0819224,16.9675369 89.6284747,16.7592803 C90.1935136,16.5439669 90.6727018,16.2558791 91.1504233,15.787494 C91.6281108,15.3190755 91.9219201,14.8492188 92.1415097,14.2951833 C92.3539024,13.7592745 92.4991698,13.146812 92.5408843,12.250041 C92.5827012,11.3513971 92.5925926,11.0644799 92.5925926,8.77633251 C92.5925926,6.4881517 92.5827012,6.20123447 92.5408843,5.30259056 C92.4991698,4.40581953 92.3539024,3.79335709 92.1415097,3.25744828 C91.9219201,2.70341274 91.6281108,2.23355609 91.1504233,1.76513754 C90.6727018,1.29675243 90.1935136,1.00866465 89.6284747,0.793384758 C89.0819224,0.585094687 88.4572962,0.442656117 87.5427149,0.40175394 C86.6262236,0.360751431 86.333608,0.351052632 84.0000171,0.351052632 Z M84.0000171,1.86911535 C86.2943152,1.86911535 86.5660906,1.8777105 87.4721448,1.91824479 C88.3099141,1.95570222 88.7648853,2.09295695 89.0676652,2.20833921 C89.4687452,2.36117891 89.7549825,2.54375044 90.0556476,2.83859393 C90.3563468,3.13340398 90.5425443,3.41406716 90.6984195,3.80733674 C90.8160933,4.10422033 90.956074,4.55033164 90.9942753,5.37178648 C91.0356146,6.26019647 91.0443805,6.52667934 91.0443805,8.77633251 C91.0443805,11.0259522 91.0356146,11.2924351 90.9942753,12.1808451 C90.956074,13.0022999 90.8160933,13.4484113 90.6984195,13.7452948 C90.5425443,14.1385644 90.3563468,14.4192276 90.0556476,14.7140376 C89.7549825,15.0088811 89.4687452,15.1914527 89.0676652,15.3442924 C88.7648853,15.4596746 88.3099141,15.5969294 87.4721448,15.6343868 C86.566227,15.6749211 86.2944858,15.6835162 84.0000171,15.6835162 C81.7055142,15.6835162 81.4338071,15.6749211 80.5278552,15.6343868 C79.6900859,15.5969294 79.2351147,15.4596746 78.9323348,15.3442924 C78.5312548,15.1914527 78.2450175,15.0088811 77.9443524,14.7140376 C77.6436873,14.4192276 77.4574557,14.1385644 77.3015805,13.7452948 C77.1839067,13.4484113 77.043926,13.0022999 77.0057247,12.1808451 C76.9643854,11.2924351 76.9556195,11.0259522 76.9556195,8.77633251 C76.9556195,6.52667934 76.9643854,6.26019647 77.0057247,5.37178648 C77.043926,4.55033164 77.1839067,4.10422033 77.3015805,3.80733674 C77.4574557,3.41406716 77.6436532,3.13340398 77.9443524,2.83859393 C78.2450175,2.54375044 78.5312548,2.36117891 78.9323348,2.20833921 C79.2351147,2.09295695 79.6900859,1.95570222 80.5278552,1.91824479 C81.4339094,1.8777105 81.7056848,1.86911535 84.0000171,1.86911535 Z M84.0000171,4.44983201 C81.5630778,4.44983201 79.5875904,6.38684941 79.5875904,8.77633251 C79.5875904,11.1657822 81.5630778,13.1027996 84.0000171,13.1027996 C86.4369222,13.1027996 88.4124096,11.1657822 88.4124096,8.77633251 C88.4124096,6.38684941 86.4369222,4.44983201 84.0000171,4.44983201 Z M84.0000171,11.5847368 C82.41814,11.5847368 81.1358025,10.3273712 81.1358025,8.77633251 C81.1358025,7.22526043 82.41814,5.96789474 84.0000171,5.96789474 C85.58186,5.96789474 86.8641975,7.22526043 86.8641975,8.77633251 C86.8641975,10.3273712 85.58186,11.5847368 84.0000171,11.5847368 Z M89.617867,4.27889904 C89.617867,4.83728232 89.1562104,5.28991524 88.5867374,5.28991524 C88.0172985,5.28991524 87.555642,4.83728232 87.555642,4.27889904 C87.555642,3.72051577 88.0172985,3.2678494 88.5867374,3.2678494 C89.1562104,3.2678494 89.617867,3.72051577 89.617867,4.27889904 Z" id="Instagram"></path>
            </g>
        </g>
    </g>
</svg>