<svg width="24" height="15" viewBox="0 0 24 15" fill="none" xmlns="http://www.w3.org/2000/svg">
<path d="M23.2112 0.0416044C23.3487 0.0804578 23.3577 0.254069 23.2416 0.337509L12.002 8.41707L0.762106 0.336325C0.645821 0.252725 0.655122 0.0787797 0.793103 0.0404103C0.887766 0.0140868 0.987662 0 1.09091 0H22.9091C23.0139 0 23.1152 0.014513 23.2112 0.0416044Z" fill="#C1333F"/>
<path d="M24 2.17406C24 2.01111 23.8156 1.91655 23.6833 2.01166L12.002 10.4087L0.316746 2.00785C0.184435 1.91273 0 2.00729 0 2.17024V13.9286C0 14.5203 0.488417 15 1.09091 15H22.9091C23.5116 15 24 14.5203 24 13.9286V2.17406Z" fill="#C1333F"/>
</svg>
