<svg width="211" height="707" viewBox="0 0 211 707" fill="none" xmlns="http://www.w3.org/2000/svg">
<path d="M62.4326 108.283C42.8151 108.283 27.8057 102.873 17.4044 92.0533C7.13483 81.3656 2.00003 66.0599 2.00003 46.136C2.00003 42.5734 2.06586 38.813 2.19752 34.8546C2.32919 31.0282 2.52668 27.2677 2.79001 23.5732C3.05333 20.0106 3.31665 16.712 3.57997 13.6772C3.84329 10.7744 4.10661 8.5973 4.36993 7.14589C4.63326 5.43059 5.22574 4.11113 6.14737 3.18751C7.069 2.39583 8.51728 1.99999 10.4922 1.99999L200.508 2C202.483 2 203.931 2.39584 204.853 3.18751C205.774 4.11114 206.367 5.4306 206.63 7.1459C206.893 8.59731 207.157 10.7744 207.42 13.6772C207.683 16.712 207.947 20.0107 208.21 23.5732C208.473 27.2677 208.671 31.0282 208.803 34.8546C208.934 38.813 209 42.5735 209 46.136C209 66.0599 203.799 81.3656 193.398 92.0533C183.129 102.873 168.185 108.283 148.567 108.283L62.4326 108.283ZM148.567 80.9698C155.94 80.9698 161.997 80.0462 166.737 78.1989C171.608 76.4836 175.426 74.0426 178.191 70.8759C181.088 67.8411 183.063 64.1467 184.116 59.7924C185.301 55.5702 185.893 51.018 185.893 46.136C185.893 42.4415 185.828 39.2748 185.696 36.6359C185.564 33.997 185.433 31.6219 185.301 29.5108L25.6991 29.5108C25.5674 31.6219 25.4358 33.9969 25.3041 36.6359C25.1724 39.2748 25.1066 42.4415 25.1066 46.136C25.1066 51.018 25.6333 55.5701 26.6866 59.7924C27.8715 64.1466 29.8464 67.8411 32.6113 70.8759C35.5079 74.0426 39.326 76.4836 44.0659 78.1989C48.9373 80.0462 55.0596 80.9698 62.4326 80.9698L148.567 80.9698Z" stroke="#E9EAEE" stroke-width="4"/>
<path d="M8.91225 221.293C7.46398 221.293 6.47651 220.963 5.94987 220.303C5.42322 219.776 5.02824 218.786 4.76491 217.335C4.50159 215.751 4.17244 213.97 3.77746 211.991C3.51413 210.144 3.2508 207.769 2.98748 204.866C2.72416 202.095 2.52667 198.664 2.39501 194.574C2.13169 190.616 2.00002 185.668 2.00002 179.73C2.00002 173.265 2.52667 167.261 3.57996 161.719C4.63326 156.178 6.60817 151.362 9.50472 147.271C12.5329 143.181 16.6803 139.948 21.9467 137.573C27.2132 135.198 34.0596 134.011 42.4859 134.011L168.514 134.011C176.94 134.011 183.787 135.198 189.053 137.573C194.32 139.948 198.401 143.181 201.298 147.271C204.326 151.362 206.367 156.178 207.42 161.719C208.473 167.261 209 173.265 209 179.73C209 185.668 208.868 190.616 208.605 194.574C208.473 198.664 208.276 202.095 208.013 204.866C207.749 207.769 207.42 210.144 207.025 211.991C206.762 213.97 206.498 215.751 206.235 217.335C205.972 218.786 205.577 219.776 205.05 220.303C204.524 220.963 203.536 221.293 202.088 221.293L189.448 221.293C188.395 221.293 187.473 220.897 186.683 220.106C185.893 219.314 185.498 218.39 185.498 217.335L185.498 176.959C185.498 171.153 184.313 167.063 181.944 164.688C179.574 162.445 175.097 161.323 168.514 161.323L118.633 161.323L118.633 214.96C118.633 216.015 118.238 216.939 117.448 217.73C116.658 218.522 115.737 218.918 114.683 218.918L100.464 218.918C99.4107 218.918 98.489 218.522 97.6991 217.73C96.9091 216.939 96.5141 216.015 96.5141 214.96L96.5141 161.323L42.4859 161.323C35.9028 161.323 31.4264 162.445 29.0565 164.688C26.6865 167.063 25.5016 171.153 25.5016 176.959L25.5016 217.335C25.5016 218.39 25.1066 219.314 24.3166 220.106C23.5267 220.897 22.605 221.293 21.5517 221.293L8.91225 221.293Z" stroke="#E9EAEE" stroke-width="4"/>
<path d="M63.6176 469.778C52.6897 469.778 43.3417 468.326 35.5737 465.423C27.8056 462.652 21.4201 458.76 16.4169 453.746C11.5455 448.732 7.92477 442.795 5.55487 435.933C3.18496 429.072 2.00001 421.551 2.00001 413.371C2.00001 405.19 3.18496 397.669 5.55487 390.808C7.92477 383.947 11.5455 378.009 16.4169 372.995C21.4201 367.981 27.8056 364.023 35.5737 361.12C43.3417 358.349 52.6897 356.964 63.6176 356.964L147.382 356.964C158.179 356.964 167.461 358.349 175.229 361.12C183.129 364.023 189.514 367.981 194.386 372.995C199.389 378.009 203.075 383.947 205.445 390.808C207.815 397.669 209 405.19 209 413.371C209 421.551 207.815 429.072 205.445 435.933C203.075 442.795 199.389 448.732 194.386 453.746C189.514 458.76 183.129 462.652 175.229 465.423C167.461 468.326 158.179 469.778 147.382 469.778L63.6176 469.778ZM147.382 442.069C160.549 442.069 170.094 439.694 176.019 434.944C182.075 430.326 185.103 423.135 185.103 413.371C185.103 403.607 182.075 396.35 176.019 391.599C170.094 386.981 160.549 384.672 147.382 384.672L63.6176 384.672C50.4514 384.672 40.8401 386.981 34.7837 391.599C28.859 396.35 25.8966 403.607 25.8966 413.371C25.8966 423.135 28.859 430.326 34.7837 434.944C40.8401 439.694 50.4514 442.069 63.6176 442.069L147.382 442.069Z" stroke="#E9EAEE" stroke-width="4"/>
<path d="M188.066 583.291C187.013 583.291 186.157 582.895 185.498 582.103C184.84 581.311 184.511 580.388 184.511 579.332L184.511 544.696L7.52979 544.696C6.4765 544.696 5.55487 544.3 4.7649 543.509C3.97493 542.717 3.57995 541.793 3.57995 540.738L3.57995 521.144C3.57995 520.088 3.97493 519.165 4.7649 518.373C5.55487 517.581 6.4765 517.185 7.52979 517.185L184.511 517.185L184.511 482.55C184.511 481.494 184.84 480.57 185.498 479.779C186.157 478.987 187.013 478.591 188.066 478.591L203.668 478.591C204.721 478.591 205.577 478.987 206.235 479.779C207.025 480.57 207.42 481.494 207.42 482.55L207.42 579.332C207.42 580.388 207.025 581.311 206.235 582.103C205.577 582.895 204.721 583.291 203.668 583.291L188.066 583.291Z" stroke="#E9EAEE" stroke-width="4"/>
<path d="M63.6176 705C52.6897 705 43.3417 703.549 35.5737 700.646C27.8056 697.875 21.42 693.982 16.4169 688.968C11.5454 683.955 7.92476 678.017 5.55486 671.156C3.18495 664.295 2 656.774 2 648.593C2 640.412 3.18495 632.891 5.55486 626.03C7.92476 619.169 11.5454 613.231 16.4169 608.217C21.4201 603.204 27.8056 599.245 35.5737 596.342C43.3417 593.571 52.6897 592.186 63.6176 592.186L147.382 592.186C158.179 592.186 167.461 593.571 175.229 596.342C183.129 599.245 189.514 603.204 194.386 608.217C199.389 613.231 203.075 619.169 205.445 626.03C207.815 632.891 209 640.412 209 648.593C209 656.774 207.815 664.295 205.445 671.156C203.075 678.017 199.389 683.955 194.386 688.969C189.514 693.982 183.129 697.875 175.229 700.646C167.461 703.549 158.179 705 147.382 705L63.6176 705ZM147.382 677.291C160.549 677.291 170.094 674.916 176.019 670.166C182.075 665.548 185.103 658.357 185.103 648.593C185.103 638.829 182.075 631.572 176.019 626.822C170.094 622.204 160.549 619.895 147.382 619.895L63.6176 619.895C50.4514 619.895 40.8401 622.204 34.7837 626.822C28.8589 631.572 25.8965 638.829 25.8965 648.593C25.8965 658.357 28.8589 665.548 34.7837 670.166C40.8401 674.916 50.4514 677.291 63.6176 677.291L147.382 677.291Z" stroke="#E9EAEE" stroke-width="4"/>
<path d="M199.903 328.133C201.601 328.133 203.068 326.919 203.394 325.226C204.807 317.885 206.263 308.869 206.162 297.373C206.054 285.064 204.184 269.011 195.199 257.518C189.125 249.749 178.286 243.634 167.463 240.865C156.37 238.028 141.776 237.842 129.411 246.804C118.75 254.53 108.385 265.896 99.2183 275.947C98.1091 277.164 97.0168 278.361 95.9443 279.53C85.1874 291.255 76.1086 300.471 67.5509 305.231C62.3419 308.129 56.1996 308.448 50.0486 306.876C43.5591 305.218 39.0243 301.955 37.663 300.396C34.3701 296.627 32.5713 289.69 33.0104 279.19C33.3744 270.487 34.7879 261.443 36.4337 252.756C36.8597 250.508 35.1809 248.41 32.9259 248.408C26.8905 248.403 16.604 248.391 11.6078 248.385C9.91656 248.383 8.46347 249.586 8.12346 251.268C6.70125 258.304 4.89837 268.063 4.48441 277.96C3.95623 290.589 5.4481 307.207 16.3028 319.633C22.2396 326.429 32.2598 332.224 43.0801 334.989C54.239 337.841 68.1614 337.947 81.2697 330.655C94.5384 323.274 106.637 310.407 116.836 299.29C117.902 298.129 118.95 296.983 119.982 295.854C129.623 285.312 137.881 276.282 145.999 270.399C149.107 268.146 154.085 267.339 160.488 268.977C167.16 270.684 171.74 274.14 172.836 275.542C175.537 278.996 177.514 286.498 177.611 297.63C177.685 306.077 176.677 316.57 175.586 323.772C175.243 326.034 176.943 328.133 179.198 328.133L199.903 328.133Z" stroke="#E9EAEE" stroke-width="4"/>
</svg>
