<svg width="17" height="23" viewBox="0 0 17 23" fill="none" xmlns="http://www.w3.org/2000/svg">
<path fill-rule="evenodd" clip-rule="evenodd" d="M14.9785 12.2304C15.7122 11.015 16.1343 9.59038 16.1343 8.06716C16.1343 3.61179 12.5225 0 8.06716 0C3.61179 0 0 3.61179 0 8.06716C0 9.58302 0.418093 11.0012 1.14526 12.2128L7.20092 21.7015C7.58582 22.3682 8.54807 22.3682 8.93297 21.7015L14.9785 12.2304ZM11.2231 8.06716C11.2231 9.81057 9.80981 11.2239 8.06641 11.2239C6.323 11.2239 4.90969 9.81057 4.90969 8.06716C4.90969 6.32376 6.323 4.91045 8.06641 4.91045C9.80981 4.91045 11.2231 6.32376 11.2231 8.06716Z" fill="#C1333F"/>
</svg>
