<svg width="98" height="66" viewBox="0 0 98 66" fill="none" xmlns="http://www.w3.org/2000/svg">
<path d="M0.187561 65.5647V51.1421H3.54754C8.68027 51.1421 10.7622 53.9189 10.7622 58.5399C10.7622 59.4724 10.6179 61.2545 9.66971 62.8087C8.98947 63.9276 7.69083 65.5647 3.58877 65.5647H0.187561ZM2.35197 52.9864V63.7411H3.95981C7.6496 63.7411 8.49475 61.0265 8.49475 58.3327C8.49475 57.0272 8.26801 55.328 7.27856 54.209C6.43341 53.2557 5.32029 52.9656 3.38263 52.9656H2.35197V52.9864Z" fill="#282727"/>
<path d="M18.8636 51.1628H28.5106V52.9242H21.0898V57.1101H26.573V58.9336H21.1311V63.7412H28.9023V65.5647H18.8636V51.1628Z" fill="#282727"/>
<path d="M44.1346 54.9136C43.4131 53.5873 42.7329 52.5927 40.9395 52.5927C39.9913 52.5927 38.569 53.1107 38.569 54.4991C38.569 55.8046 39.7439 56.3434 40.2593 56.5506L43.3513 57.8561C43.8872 58.084 45.021 58.685 45.6806 59.7418C45.8661 60.0734 46.2165 60.6329 46.2165 61.6897C46.2165 63.0366 45.6806 64.1556 44.6911 64.9431C43.4131 65.9585 42.1557 65.9585 41.3312 65.9585C40.3829 65.9585 38.8576 65.6683 37.7857 64.8187C36.7962 64.052 36.4046 63.3267 36.0541 62.6429L37.9093 61.5654C38.3628 62.7258 39.3935 64.1556 41.4755 64.1556C42.7947 64.1556 44.1964 63.4096 44.1964 61.8347C44.1964 61.1716 43.9284 60.322 42.3 59.6382L39.5584 58.4778C38.6102 58.084 37.4971 57.3588 37.0024 56.5506C36.7962 56.1983 36.5282 55.5559 36.5282 54.5406C36.5282 52.3647 38.5071 50.8313 40.9395 50.8313C43.31 50.8313 45.0003 51.9296 45.9486 53.8982L44.1346 54.9136Z" fill="#282727"/>
<path d="M62.9137 54.4371C63.3878 55.7218 63.5115 57.4003 63.5115 58.395C63.5115 61.8349 62.4808 66 58.2963 66C54.4829 66 53.0605 62.4565 53.0605 58.6022C53.0605 56.4057 53.4316 54.3956 54.3386 53.0901C55.6372 51.163 57.1626 50.9557 58.317 50.9557C60.8936 50.935 62.2747 52.6964 62.9137 54.4371ZM58.317 52.6757C56.9771 52.6757 56.1525 53.546 55.7197 54.893C55.4311 55.7633 55.2456 57.0273 55.2456 58.5401C55.2456 60.3636 55.5135 64.2179 58.2345 64.2179C60.4401 64.2179 61.2853 62.125 61.2853 58.4572C61.2853 56.5507 61.0791 52.6757 58.317 52.6757Z" fill="#282727"/>
<path d="M81.0542 51.1628V52.9864H76.5605V65.5854H74.3342V52.9864H69.8199V51.1628H81.0542Z" fill="#282727"/>
<path d="M97.2151 54.4371C97.6892 55.7218 97.8129 57.4003 97.8129 58.395C97.8129 61.8349 96.7822 66 92.5977 66C88.7842 66 87.3619 62.4565 87.3619 58.6022C87.3619 56.4057 87.7329 54.3956 88.6399 53.0901C89.9386 51.163 91.4639 50.9557 92.6183 50.9557C95.195 50.935 96.5761 52.6964 97.2151 54.4371ZM92.6183 52.6757C91.2784 52.6757 90.4539 53.546 90.021 54.893C89.7324 55.7633 89.5469 57.0273 89.5469 58.5401C89.5469 60.3636 89.8149 64.2179 92.5358 64.2179C94.7415 64.2179 95.5866 62.125 95.5866 58.4572C95.5866 56.5507 95.3805 52.6757 92.6183 52.6757Z" fill="#282727"/>
<path d="M54.3608 9.03478C52.2582 6.69318 49.3517 4.86963 45.3321 5.51202C43.1059 5.98863 40.7766 7.39773 40.7766 10.2159C40.7766 13.5522 43.9098 14.9613 45.2497 15.5208L53.4538 18.8571C54.4638 19.2922 56.2984 20.2247 57.9063 21.7167C57.9063 21.4888 57.9269 21.2401 57.9269 21.0122C57.9269 17.1786 57.2466 12.2882 54.3608 9.03478Z" fill="#B1132F"/>
<path d="M55.7008 29.1144C55.7008 27.3945 54.9794 25.2187 50.6506 23.4573L43.3741 20.4733C42.3022 20.0382 41.1478 19.4165 40.0553 18.7327V30.4821C41.5601 32.8652 44.1574 35.0824 48.4656 35.0824C51.9492 35.0824 55.7008 33.1553 55.7008 29.1144Z" fill="#B1132F"/>
<path d="M63.3879 40.4703H34.6116V0H63.3879V40.4703ZM36.7554 38.2945H61.2235V2.17582H36.7554V38.2945Z" fill="#B1132F"/>
</svg>
