<svg width="59" height="51" viewBox="0 0 59 51" fill="none" xmlns="http://www.w3.org/2000/svg">
<path d="M16.6739 27.2366C19.117 28.0896 21.0103 29.491 22.354 31.4409C23.6977 33.3907 24.3696 35.767 24.3696 38.5699C24.3696 42.2258 23.2091 45.2115 20.8882 47.5269C18.5673 49.8423 15.6967 51 12.2764 51C8.73395 51 5.80227 49.8423 3.48136 47.5269C1.16045 45.0896 -3.8147e-06 42.1039 -3.8147e-06 38.5699C-3.8147e-06 36.8638 0.183226 35.1577 0.549685 33.4516C1.0383 31.6237 1.95445 29.0036 3.29813 25.5914L11.9099 0H23.4534L16.6739 27.2366ZM51.3043 27.2366C53.7474 28.0896 55.6408 29.491 56.9845 31.4409C58.3282 33.3907 59 35.767 59 38.5699C59 42.2258 57.8395 45.2115 55.5186 47.5269C53.1977 49.8423 50.3271 51 46.9068 51C43.3644 51 40.4327 49.8423 38.1118 47.5269C35.7909 45.0896 34.6304 42.1039 34.6304 38.5699C34.6304 36.8638 34.8137 35.1577 35.1801 33.4516C35.6687 31.6237 36.5849 29.0036 37.9286 25.5914L46.5404 0H58.0838L51.3043 27.2366Z" fill="#C1333F" fill-opacity="0.2"/>
</svg>
