<svg width="127" height="117" viewBox="0 0 127 117" fill="none" xmlns="http://www.w3.org/2000/svg">
<path d="M114.258 103.182V40.0075C114.258 39.1302 113.898 38.2915 113.261 37.6878C104.307 29.1962 94.4005 21.77 83.7385 15.5574L61.0175 2.31845C58.6143 0.918156 55.6438 0.918156 53.2406 2.31845L30.5196 15.5574C19.8575 21.77 9.95068 29.1962 0.997027 37.6878C0.360495 38.2915 0 39.1302 0 40.0075V103.182C0 109.738 5.31481 115.053 11.871 115.053H102.387C108.943 115.053 114.258 109.738 114.258 103.182Z" fill="#384DA6"/>
<mask id="mask0" mask-type="alpha" maskUnits="userSpaceOnUse" x="0" y="1" width="115" height="115">
<path d="M114.258 103.182V40.0075C114.258 39.1302 113.898 38.2915 113.261 37.6878C104.307 29.1962 94.4005 21.77 83.7385 15.5574L61.0175 2.31845C58.6143 0.918156 55.6438 0.918156 53.2406 2.31845L30.5196 15.5574C19.8575 21.77 9.95068 29.1962 0.997027 37.6878C0.360495 38.2915 0 39.1302 0 40.0075V103.182C0 109.738 5.31481 115.053 11.871 115.053H102.387C108.943 115.053 114.258 109.738 114.258 103.182Z" fill="#384DA6"/>
</mask>
<g mask="url(#mask0)">
<path opacity="0.2" d="M0 115.053L114.258 38.6333V115.053H0Z" fill="black"/>
<path opacity="0.2" d="M114.258 115.053L-7.62939e-06 38.6333V115.053H114.258Z" fill="black"/>
</g>
<path d="M24.4838 10.4399C20.3862 10.4399 17.0645 13.7617 17.0645 17.8593V50.0468L57.129 76.8432L97.9354 49.5505V17.8593C97.9354 13.7617 94.6136 10.4399 90.5161 10.4399H24.4838Z" fill="#EFF2F5"/>
<circle cx="108" cy="39.0527" r="19" fill="#FF007A"/>
<path d="M110.498 32.4527V45.0527H106.25V35.6567H104.09V32.4527H110.498Z" fill="white"/>
</svg>
