<svg width="30" height="25" viewBox="0 0 30 25" fill="none" xmlns="http://www.w3.org/2000/svg">
<path d="M29.3754 0.332283C28.7591 -0.0688182 28.1429 -0.068818 27.5266 0.131733L1.64338 9.95871C0.205422 10.5604 0 11.3626 0 11.5631C0 11.9642 0.205422 12.5659 1.43796 12.7664L7.80605 14.7719L10.0657 21.9917C10.0657 22.1923 10.2711 22.3928 10.2711 22.3928C10.4765 22.9945 10.682 23.3956 11.5037 23.3956C12.3253 23.3956 12.7362 22.9945 13.147 22.5934L16.0229 19.7857L22.391 24.5989C22.8019 24.7994 23.2127 25 23.6236 25C23.829 25 24.0344 25 24.2398 24.7994C24.8561 24.5989 25.267 23.9972 25.4724 23.195L29.7863 2.73889C30.1971 1.73614 29.9917 0.933935 29.3754 0.332283ZM8.62774 14.7719L22.8019 5.9477L11.5037 15.9752C11.5037 15.9752 11.5037 15.9752 11.5037 16.1758V16.3763L10.8874 22.3928C10.8874 22.1923 10.8874 21.9917 10.682 21.9917L8.62774 14.7719Z" fill="white"/>
</svg>
